<svg xmlns="http://www.w3.org/2000/svg" viewBox="0 0 194.3 194.3"><defs><style>.cls-1{fill:#ffd62c;}.cls-2{fill:none;stroke:#e4a300;stroke-miterlimit:10;stroke-width:7px;}.cls-3{fill:#e2a200;}.cls-4{fill:#e3a900;}.cls-5{fill:#e4a300;opacity:0.2;isolation:isolate;}</style></defs><title>svincoin bez luch</title><g id="Слой_2" data-name="Слой 2"><g id="Слой_1-2" data-name="Слой 1"><path class="cls-1" d="M97.19,194.3A97.15,97.15,0,1,1,194.3,97.11h0v.08a97.07,97.07,0,0,1-97,97.11Z"/><path class="cls-2" d="M145.32,116.75c-.68,9-6.73,14.31-15.59,13.38a58.31,58.31,0,0,1-12.52-2.73,61.86,61.86,0,0,0-38.84,0,62.65,62.65,0,0,1-13,2.73c-6.9.68-11.5-2.39-14-8.35C42.68,101.08,59.54,59.6,86.72,55c25.55-4.26,41.74,5,51.62,26.57C145.07,95.4,145.58,114,145.32,116.75Z"/><ellipse class="cls-3" cx="81.19" cy="92.19" rx="12.61" ry="6.99" transform="translate(-34.13 134.53) rotate(-68.79)"/><ellipse class="cls-3" cx="113.31" cy="92.25" rx="6.99" ry="12.61" transform="translate(-25.7 47.25) rotate(-21.21)"/><path class="cls-4" d="M53.58,30.32A7.23,7.23,0,0,1,47.7,31.6l.51-2.21a5.09,5.09,0,0,0,4.26-.94c1.79-1.11,2.3-2.55,1.45-3.83a2.18,2.18,0,0,0-1.45-1,2.67,2.67,0,0,0-1.79.34l-1.78.76a5.41,5.41,0,0,1-3.24.51,4,4,0,0,1-2.64-2c-1.54-2.38-.85-5,2-6.81a6.77,6.77,0,0,1,5.11-1.11l-.51,2.13a4.5,4.5,0,0,0-3.58.85c-1.62,1-1.87,2.47-1.11,3.67a2,2,0,0,0,1.45.93,3.37,3.37,0,0,0,1.87-.34L50,21.79a5,5,0,0,1,3.15-.6,4.77,4.77,0,0,1,2.9,2C57.5,25.75,56.39,28.54,53.58,30.32Z"/><path class="cls-4" d="M73.94,20.61l-2,.77-7-9.37.94,11.67-2,.77L54.34,11l2.48-.94,6.64,9.7-1-11.84,1.79-.68,7,9.54L69.82,5.11l2.39-.85Z"/><path class="cls-4" d="M81,19,78,3.32l2.38-.42,3,15.67Z"/><path class="cls-4" d="M98.13,17.29l-7.75-11,.34,11.25-2.39.08L87.82,1.75,90,1.67l7.75,11L97.45,1.51l2.38-.09.52,15.93Z"/><path class="cls-4" d="M110.23,18.65a5.78,5.78,0,0,1-3.84-2.38c-1.27-1.79-1-3.58-.51-6.56s.77-4.77,2.56-6.05a5.91,5.91,0,0,1,4.43-1,5.52,5.52,0,0,1,4.85,5.79L115.25,8A3.25,3.25,0,0,0,112,4.75h-.1a3.54,3.54,0,0,0-1.87.6c-.94.68-1.28,1.61-1.79,4.77s-.51,4.09.17,5.11a3.28,3.28,0,0,0,5.79-.77l2.39.43A5.65,5.65,0,0,1,110.23,18.65Z"/><path class="cls-4" d="M129.05,22.23a6,6,0,0,1-7.92-2.89c-.94-2.05-.34-3.67.77-6.56s1.61-4.52,3.66-5.45a5.5,5.5,0,0,1,4.51-.17,5.73,5.73,0,0,1,3.41,3.06c.94,2,.26,3.66-.77,6.56S131,21.3,129.05,22.23Zm2.13-11.33a3.34,3.34,0,0,0-4.43-1.62h0c-1,.52-1.45,1.37-2.55,4.35s-1.28,3.92-.86,4.94a3.34,3.34,0,0,0,4.43,1.64l0,0h0c1-.51,1.45-1.28,2.56-4.35s1.23-3.83.8-4.94Z"/><path class="cls-4" d="M133.91,26.32l7.49-14,2.13,1.1L136,27.48Z"/><path class="cls-4" d="M148.22,35.75l.85-13.38-6.73,9-2-1.45,9.54-12.78,1.79,1.36-.85,13.41,6.73-9,2,1.45L150,37.09Z"/><path class="cls-4" d="M164.15,53.92A7.23,7.23,0,0,1,162.87,48l2.21.51a5.09,5.09,0,0,0,.94,4.26c1.11,1.79,2.56,2.3,3.83,1.45a2,2,0,0,0,1-1.45,2.94,2.94,0,0,0-.43-1.87l-.77-1.7a6.15,6.15,0,0,1-.59-3.24,4,4,0,0,1,2-2.64c2.3-1.54,5-.85,6.81,2a6.74,6.74,0,0,1,1.19,5.11L176.93,50a4.42,4.42,0,0,0-.85-3.58c-1-1.62-2.47-1.88-3.66-1.11a1.9,1.9,0,0,0-.85,1.28,3.37,3.37,0,0,0,.34,1.87l.76,1.71a5,5,0,0,1,.6,3.15,4.17,4.17,0,0,1-2,2.89C168.75,57.84,165.94,56.75,164.15,53.92Z"/><path class="cls-4" d="M173.94,74.28l-.76-2,9.28-7-11.58.94-.77-2,13.46-9.47.94,2.39-9.69,6.66,11.84-1,.69,1.79-9.54,7,11.67-1.45.93,2.39Z"/><path class="cls-4" d="M175.56,81.35l15.67-3,.43,2.38-15.67,3Z"/><path class="cls-4" d="M177.35,98.39l11-7.76-11.25.43L177,88.67,193,88.08l.08,2.21L182.13,98l11.16-.42.08,2.38-15.93.6Z"/><path class="cls-4" d="M176.07,110.57a5.75,5.75,0,0,1,2.39-3.84c1.79-1.27,3.57-1,6.56-.51s4.77.77,6,2.56a5.91,5.91,0,0,1,1,4.43,5.52,5.52,0,0,1-5.8,4.85l.43-2.47a3.29,3.29,0,0,0,3.24-2.72,2.87,2.87,0,0,0-.6-2.47c-.68-.94-1.62-1.2-4.77-1.79s-4.09-.51-5,.17a3.26,3.26,0,0,0-1.36,2.13,3.3,3.3,0,0,0,2.22,3.66L180,117A5.44,5.44,0,0,1,176.07,110.57Z"/><path class="cls-4" d="M172.49,129.31a6,6,0,0,1,2.9-7.93c2-.93,3.66-.34,6.56.77s4.6,1.62,5.54,3.66a6,6,0,0,1-2.9,7.93c-2,.93-3.66.34-6.56-.77S173.43,131.35,172.49,129.31Zm11.33,2.13a3.31,3.31,0,0,0,1.63-4.4v0c-.51-1-1.28-1.45-4.34-2.56s-3.92-1.28-5-.77a3.34,3.34,0,0,0-1.62,4.43c.51,1,1.28,1.45,4.35,2.56S182.72,132,183.82,131.44Z"/><path class="cls-4" d="M168.41,134.16l14.05,7.5-1.11,2.09-14-7.5Z"/><path class="cls-4" d="M159,148.64l13.37.77-9-6.73,1.45-2,12.78,9.54L176.36,152l-13.29-.77L172,158l-1.44,2-12.78-9.54Z"/><path class="cls-4" d="M140.89,164.57a7,7,0,0,1,5.88-1.28l-.51,2.22a5.09,5.09,0,0,0-4.26.94c-1.79,1.1-2.3,2.55-1.45,3.83a2.18,2.18,0,0,0,1.45,1,2.58,2.58,0,0,0,1.79-.43l1.7-.76a6.16,6.16,0,0,1,3.24-.6,4.11,4.11,0,0,1,2.64,2c1.53,2.3.85,5-2,6.82a6.49,6.49,0,0,1-5.11,1.19l.43-2.13a4.48,4.48,0,0,0,3.57-.85c1.62-1,1.88-2.47,1.11-3.67a1.78,1.78,0,0,0-1.28-.93,3.37,3.37,0,0,0-1.87.34l-1.71.76a5,5,0,0,1-3.15.6,4.17,4.17,0,0,1-2.89-2C137.06,169.17,138.17,166.45,140.89,164.57Z"/><path class="cls-4" d="M120.62,174.45l2-.76,7.07,9.28-1-11.58,1.95-.77L140.27,184l-2.38.94-6.65-9.63,1.11,11.84-1.79.69-7.07-9.46L125,190l-2.38.94Z"/><path class="cls-4" d="M113.63,176.16l3.07,15.67-2.38.51-3.07-15.67Z"/><path class="cls-4" d="M96.51,177.94l7.84,10.91-.43-11.25,2.39-.08.68,15.93-2.22.08-7.83-10.9.42,11.16-2.38.08-.68-15.93Z"/><path class="cls-4" d="M84.33,176.67a5.64,5.64,0,0,1,3.83,2.3c1.28,1.79,1,3.57.52,6.56s-.77,4.77-2.56,6a5.91,5.91,0,0,1-4.43,1,5.43,5.43,0,0,1-4.85-5.71l2.47.34a3.2,3.2,0,0,0,3.16,3.24h.16a3.29,3.29,0,0,0,2-.68c.93-.69,1.19-1.62,1.7-4.77s.51-4.09-.17-5A3.55,3.55,0,0,0,84,178.59a3.29,3.29,0,0,0-3.67,2.21l-2.38-.34A5.78,5.78,0,0,1,84.33,176.67Z"/><path class="cls-4" d="M65.59,173.17A6,6,0,0,1,73.51,176c.94,2,.34,3.66-.68,6.55s-1.62,4.6-3.58,5.54a5.58,5.58,0,0,1-4.51.17,5.79,5.79,0,0,1-3.41-3.06c-.94-2.05-.34-3.67.77-6.56S63.55,174.2,65.59,173.17ZM63.46,184.5a3.31,3.31,0,0,0,4.4,1.63h0c1-.51,1.45-1.36,2.56-4.34s1.19-3.92.76-4.94a3.38,3.38,0,0,0-4.49-1.63h0c-1,.51-1.45,1.36-2.56,4.34S63,183.48,63.46,184.5Z"/><path class="cls-4" d="M60.65,169.17l-7.41,14.14-2.13-1.11,7.41-14.14Z"/><path class="cls-4" d="M46.25,159.8l-.76,13.46,6.64-9,2,1.45-9.45,12.78-1.86-1.4.76-13.37-6.64,9-2-1.45,9.46-12.86Z"/><path class="cls-4" d="M30.24,141.75a7.29,7.29,0,0,1,1.36,5.88l-2.21-.51a5,5,0,0,0-.94-4.26c-1.11-1.7-2.55-2.3-3.83-1.45a2.18,2.18,0,0,0-1,1.45,2.64,2.64,0,0,0,.42,1.79l.77,1.7a5.43,5.43,0,0,1,.6,3.24,4.3,4.3,0,0,1-1.88,2.64c-2.3,1.53-5,.85-6.81-1.87a6.45,6.45,0,0,1-1.2-5.11l2.13.42a4.47,4.47,0,0,0,.86,3.58c1,1.62,2.47,1.87,3.66,1.11a1.82,1.82,0,0,0,.94-1.28,3.48,3.48,0,0,0-.35-1.88L22,145.5a5,5,0,0,1-.6-3.15,4.27,4.27,0,0,1,2.05-2.9C25.56,137.91,28.37,138.93,30.24,141.75Z"/><path class="cls-4" d="M20.27,121.55l.77,2-9.28,7.07,11.58-1.1.77,2-13.38,9.62-.93-2.38L19.42,132l-11.84,1.1-.68-1.78,9.46-7.16L4.69,125.72l-.94-2.38Z"/><path class="cls-4" d="M18.57,114.48,2.9,117.55l-.51-2.38L18.06,112Z"/><path class="cls-4" d="M16.7,97.36,5.82,105.2l11.25-.51.08,2.38-15.93.69-.08-2.22L12,97.7.88,98.21.8,95.83l15.93-.68Z"/><path class="cls-4" d="M17.89,85.18a5.68,5.68,0,0,1-2.3,3.92c-1.79,1.28-3.49,1-6.56.51s-4.77-.68-6.13-2.47a5.91,5.91,0,0,1-1-4.43,5.44,5.44,0,0,1,5.71-4.85l-.34,2.47A3.33,3.33,0,0,0,4,83.73a3.52,3.52,0,0,0,.6,1.88c.68.93,1.62,1.19,4.77,1.7s4.09.43,5-.17a3.37,3.37,0,0,0,.68-4.68,4.11,4.11,0,0,0-1.54-1.2l.35-2.38A5.38,5.38,0,0,1,17.89,85.18Z"/><path class="cls-4" d="M21.3,66.36a5.58,5.58,0,0,1,.17,4.51,5.94,5.94,0,0,1-3,3.41c-2,.94-3.67.34-6.56-.68S7.31,72,6.37,70A6,6,0,0,1,9.18,62.1c2-.94,3.66-.34,6.56.68S20.36,64.4,21.3,66.36ZM10,64.36a3.36,3.36,0,0,0-1.71,1.88,3,3,0,0,0,.17,2.55c.52,1,1.37,1.45,4.35,2.56s3.92,1.19,5,.76a3.38,3.38,0,0,0,1.63-4.49v0h0c-.51-1-1.36-1.45-4.34-2.56s-4-1.15-5.09-.73Z"/><path class="cls-4" d="M25.39,61.5,11.24,54.09,12.35,52l14.14,7.41Z"/><path class="cls-4" d="M34.58,47l-13.45-.68,9,6.64-1.45,2L15.82,45.49l1.39-1.74,13.37.68-8.94-6.68,1.45-2L36,45.2Z"/><circle class="cls-5" cx="97.79" cy="97.53" r="78.28"/><polygon class="cls-4" points="38.76 28.79 38.5 31.77 40.8 33.65 37.99 34.33 36.88 37.14 35.35 34.58 32.37 34.41 34.33 32.2 33.56 29.3 36.29 30.41 38.76 28.79"/><polygon class="cls-4" points="164.66 34.75 163.89 37.65 165.85 39.86 162.87 40.03 161.34 42.59 160.23 39.78 157.42 39.1 159.72 37.22 159.46 34.33 161.93 35.95 164.66 34.75"/><polygon class="cls-4" points="161 160.91 159.04 163.12 159.8 166.02 157.08 164.91 154.61 166.53 154.86 163.55 152.56 161.68 155.46 160.99 156.48 158.18 158.01 160.74 161 160.91"/><polygon class="cls-4" points="36.8 158.44 34.33 160.14 34.33 163.12 32.03 161.33 29.22 162.27 30.16 159.46 28.37 157.07 31.35 157.16 33.05 154.69 33.9 157.59 36.8 158.44"/></g></g></svg>